<?xml version="1.0" encoding="UTF-8" standalone="no"?><!DOCTYPE svg PUBLIC "-//W3C//DTD SVG 1.1//EN" "http://www.w3.org/Graphics/SVG/1.1/DTD/svg11.dtd"><svg width="100%" height="100%" viewBox="0 0 32 32" version="1.1" xmlns="http://www.w3.org/2000/svg" xmlns:xlink="http://www.w3.org/1999/xlink" xml:space="preserve" xmlns:serif="http://www.serif.com/" style="fill-rule:evenodd;clip-rule:evenodd;stroke-linecap:round;stroke-linejoin:round;stroke-miterlimit:1.5;"><path d="M6.37,12.816c-0.285,-0.899 -1.047,-1.748 -0.905,-2.515c2.735,-14.766 24.507,-10.379 22.952,2.195c-0,0 0.041,2.076 -4.793,7.669c-0.123,0.141 -0.08,8.706 -0.08,8.706c-3.874,2.217 -7.762,2.665 -11.663,1.518l3.036,-5.352l-3.688,1.63c-1.524,0.966 -3.588,0.981 -4.14,0.447c-0.258,-1.017 -0.348,-2.048 -0,-3.115l-0.879,-1.278c-0.043,-0.787 -0.081,-2.011 0.16,-3.275c-0,-0 -3.39,0.054 -2.796,-1.039c1.42,-2.613 2.796,-5.591 2.796,-5.591Z" style="fill:#0cbce8;"/><path d="M24.586,20.579c4.428,-5.18 4.802,-7.541 4.829,-8.013c0.658,-5.492 -2.713,-9.581 -7.236,-11.451c-6.723,-2.779 -15.917,-0.607 -17.697,9.004c-0.091,0.491 0.011,1.01 0.241,1.539c0.157,0.361 0.39,0.733 0.561,1.117l0,0.001c-0.413,0.877 -1.487,3.126 -2.589,5.154c-0.229,0.421 -0.23,0.795 -0.132,1.116c0.117,0.381 0.424,0.745 0.94,0.979c0.451,0.204 1.139,0.309 1.73,0.363c-0.083,0.933 -0.055,1.781 -0.022,2.387c0.01,0.184 0.071,0.361 0.175,0.512l0.615,0.896c-0.246,1.082 -0.146,2.136 0.118,3.177c0.046,0.18 0.141,0.344 0.274,0.473c0.28,0.27 0.769,0.509 1.414,0.594c1.056,0.139 2.624,-0.095 3.895,-0.876c-0.005,0.003 0.853,-0.377 0.853,-0.377c0,0 -1.543,2.722 -1.543,2.722c-0.151,0.265 -0.172,0.585 -0.058,0.868c0.115,0.283 0.352,0.498 0.645,0.585c4.161,1.223 8.309,0.755 12.441,-1.61c0.313,-0.179 0.506,-0.512 0.504,-0.873c-0,0 -0.034,-6.654 0.042,-8.287Zm3.647,-7.291l0.184,0.208l-0.189,-0.195c-0.366,1.053 -1.442,3.206 -4.604,6.864c-0.123,0.141 -0.08,8.706 -0.08,8.706c-3.874,2.217 -7.762,2.665 -11.663,1.518l3.036,-5.352l-3.688,1.63c-1.524,0.966 -3.588,0.981 -4.14,0.447c-0.258,-1.017 -0.348,-2.048 -0,-3.115l-0.879,-1.278c-0.043,-0.787 -0.081,-2.011 0.16,-3.275c-0,-0 -3.39,0.054 -2.796,-1.039c1.42,-2.613 2.796,-5.591 2.796,-5.591c-0.285,-0.899 -1.047,-1.748 -0.905,-2.515c2.735,-14.766 24.507,-10.379 22.952,2.195c-0,0 0.005,0.245 -0.184,0.792Z" style="fill:#31e5cf;"/><g><path d="M17.343,14.434c0.234,1.517 1.298,2.122 3.29,1.708c2.269,0.045 3.772,-1.625 3.376,-3.29" style="fill:none;stroke:#31e5cf;stroke-width:1px;"/><path d="M18.728,8.315c-0.654,-2.806 4.396,-3.257 3.982,0c1.322,1.907 0.579,3.223 -1.904,2.633c-1.496,-0.394 -2.538,-0.197 -3.116,0.606c-0.836,0.771 -1.454,0.707 -1.905,-0" style="fill:none;stroke:#31e5cf;stroke-width:1px;"/><path d="M12.769,7.052c0.414,-1.428 1.439,-2.044 3.231,-1.644c0.946,-1.291 2.095,-1.439 3.681,0.865" style="fill:none;stroke:#31e5cf;stroke-width:1px;"/><path d="M12.496,9.476c-2.607,-0.164 -2.235,-3.397 0.26,-2.597c1.256,0.718 1.63,1.613 2.077,3.116" style="fill:none;stroke:#31e5cf;stroke-width:1px;"/><path d="M11.111,4.975c-4.101,2.325 -1.868,7.469 2.164,6.579" style="fill:none;stroke:#31e5cf;stroke-width:1px;"/><path d="M11.111,4.975c0.92,-1.521 2.267,-2.122 4.155,-1.558c1.44,-0.785 2.956,-0.811 4.588,0.346c2.014,0.221 3.499,1.128 4.155,3.116c2.499,4.137 0.45,7.446 -3.203,6.06c-1.565,1.511 -3.166,1.913 -4.806,1.038c-3.534,-0.525 -3.976,-1.846 -1.253,-3.982c0.353,-1.486 1.27,-1.814 2.683,-1.125c0.877,-0.825 1.914,-0.781 3.116,0.173" style="fill:none;stroke:#31e5cf;stroke-width:1px;"/></g></svg>